
<svg version="1" xmlns="http://www.w3.org/2000/svg" width="1328.518" height="1325.824" viewBox="0 0 996.389 994.368"><path d="M372.32.987c-16.5 1.6-23.3 3.2-35 8-22.5 9.3-35.6 19.4-71.5 55.4-38.5 38.6-47.6 45.7-80.5 63-5.5 2.9-13.5 7.3-17.9 9.7-4.3 2.3-8 4.3-8.2 4.3-1.3 0-22.2 13.3-29.9 19-23.1 17.1-43.1 43.6-51.4 68.1-1.2 3.5-2.6 7.3-3.1 8.4-.5 1.1-1.1 3.3-1.5 5-.3 1.6-1 4.8-1.6 7-1.8 7-4.5 21.7-7.9 43.5-.6 3.6-1.5 9.2-2 12.5-.5 3.3-1.4 8.9-2 12.5-1.2 8.1-2.5 14.3-4 19.5-.6 2.2-1.4 5.2-1.7 6.8-.3 1.5-.9 3-1.4 3.3-.5.3-.9 1.4-.9 2.5 0 1-.4 2.7-.9 3.7-.5.9-1.3 2.8-1.8 4.2-.6 1.4-1.6 3.8-2.3 5.5-.7 1.6-1.6 3.9-2 5-.9 2.5-3.4 7.9-10.8 23.6-9.9 20.7-14.8 31.3-20.1 43.1-1.1 2.6-2.1 5.4-2.1 6.1 0 .7-.4 1.7-.8 2.2-.4.6-1.4 2.8-2.1 5-.7 2.2-1.6 4.9-2.1 6-.4 1.1-1.3 4-2 6.5s-1.6 5.6-2 7c-2.5 8.1-3.1 14.4-2.7 27.5.6 15.9 1.6 22.8 5.6 36.5.5 1.9 1.3 4.6 1.6 6 .4 1.4 1.1 3.4 1.5 4.5.5 1.1 1.6 4 2.4 6.5 2 6.4 7.2 19.4 10.8 27 1.7 3.6 4.1 8.7 5.3 11.5 1.3 2.7 5.8 12.2 10 21 7.3 15.1 12.5 27.2 14.7 34 2.2 6.8 5.2 18.5 6.7 26 .6 3.3 1.6 7.9 2.1 10.3.6 2.3 1 5.3 1 6.7 0 1.4.4 4.4 1 6.7.5 2.4 1.4 7.7 2 11.8 1 7.1 1.7 10.7 4.1 24 7.5 40 20.8 68 42.8 90 15.9 15.8 27.3 23.4 68.8 45.8 42.1 22.6 45.8 25.5 84.3 64.2 33.5 33.8 44.5 42.8 62.7 51.9 11.8 5.9 21.2 8.7 37.4 11.2 8.3 1.2 43.4.6 57.4-1 4.4-.5 12.3-1.5 17.5-2.1 5.2-.6 13.1-1.5 17.5-2s12.3-1.3 17.5-1.9c5.2-.6 16.3-1 24.5-1 18.8 0 30.4 1 55.5 4.9 8.8 1.4 19.5 2.9 26.8 3.9 3.7.5 8.3 1.4 10.2 2 4.7 1.5 24.6 1.4 27.3-.1 1.2-.6 5.4-1.5 9.2-1.9 3.9-.5 9.5-1.3 12.5-1.9 3-.6 7-1.3 8.8-1.7 1.8-.3 3.5-.9 3.8-1.4.3-.5 1.4-.9 2.5-.9 1 0 2.7-.4 3.7-.9.9-.5 4.4-2 7.7-3.2 7.3-2.8 13.7-6.6 23.8-14.3 11.5-8.7 16.6-13.4 43.7-40.7 37.8-38.1 43.7-42.4 88.5-65.9 38.5-20.2 56.2-33 72.3-52.3 9.3-11.3 21.4-33.3 25.3-46.2.6-2.2 1.5-4.9 1.9-6 2.9-7.6 7.1-28.4 11.1-54 2.7-17.4 4.4-27.3 7.4-42 1.2-5.9 3.7-14.4 5.5-19 .5-1.1 1.6-4 2.5-6.5 3.3-8.9 6.2-15.2 19.5-42.5 6.1-12.7 11.5-23.9 12-25 .4-1.1 1.7-4.1 2.9-6.7 1.2-2.6 2.1-5.4 2.1-6.1 0-.7.4-1.7.8-2.3.5-.5 1.4-2.9 2.1-5.4.7-2.5 1.7-5.4 2.1-6.5.5-1.1 1.1-3.4 1.5-5 .3-1.7 1-5 1.6-7.5 2.8-13 3.4-45.7.9-56-.5-1.9-1.4-6-2-9-1.5-6.9-4.1-15.6-6.1-20.8-.5-1.2-1.3-3.3-1.9-4.7-.5-1.4-1.4-3.5-1.9-4.8-1.3-3.4-6.2-13.7-14.4-30.7-11.4-23.5-16.2-33.9-18.6-40.5-1.3-3.3-2.7-6.8-3.2-7.7-.5-1-.9-2.7-.9-3.7 0-1.1-.4-2.3-1-2.6-.5-.3-1-1.9-1-3.5s-.4-3.1-.9-3.4c-.5-.3-1.1-2.3-1.4-4.3-.3-2.1-1.1-6.3-1.7-9.3-2.1-10.6-3.6-19.2-5.9-34.5-3-19.5-4.3-26.8-6.1-35-.6-2.8-1.4-6.7-1.7-8.8-.3-2-.9-4-1.4-4.3-.5-.3-.9-1.8-.9-3.4 0-1.6-.4-3.2-1-3.5-.5-.3-1-1.7-1-3s-.4-2.7-1-3c-.5-.3-1-1.3-1-2 0-1.4-4.9-13-7.1-16.9-.6-1-2-3.4-3-5.4-10.8-19-28-37.5-47.9-51.1-3.9-2.7-22.9-14.1-23.4-14.1-.2 0-4.1-2.1-8.7-4.6-4.6-2.6-12.5-6.8-17.6-9.5-5-2.6-10.9-5.9-13.2-7.3-2.2-1.4-4.3-2.6-4.6-2.6-1.6 0-25.7-17.2-31.5-22.4-3.6-3.3-17.3-16.8-30.5-30.1s-25.8-25.7-28-27.6c-12.9-11-21.8-17.4-32-22.8-8.2-4.3-20.3-9.1-22.9-9.1-1.2 0-2.6-.4-3.2-.9-1.1-1-5.5-1.7-22.1-3.2-9.1-.9-16.8-.9-30 0-16.9 1.1-22.2 1.6-40.8 4.1-42.1 5.7-65.1 5.7-107.5 0-15.4-2.1-23.3-2.9-37-3.9-7.4-.6-15.7-1.2-18.5-1.4-2.7-.3-10.8.1-18 .9zm181.5 121.9c24.5 3.1 41.2 9 59.6 21 14 9.1 33.9 29.7 41.1 42.5 1.1 1.9 3.4 5.9 5.2 8.8 1.7 2.9 3.1 5.5 3.1 5.7 0 .2 1.1 2.8 2.4 5.8 3 6.5 7 18.4 8.5 25.2.6 2.7 1.5 7 2 9.5s1.3 10.3 1.6 17.5c1.2 26.1-3.3 47.5-14.7 70-10.8 21.1-34.4 46-54.6 57.7-4.7 2.8-13.8 7.3-17.9 8.9-1.3.5-3.3 1.3-4.5 1.8-14.4 5.7-38.7 9.9-51 8.7-28-2.7-41.9-6.7-61.6-17.8-3.9-2.1-15.4-9.8-16.2-10.7-.3-.4-2.3-1.9-4.5-3.6-4.5-3.3-15.9-14.4-19.6-19.1-7.8-9.9-10.8-14.6-15.8-24.9-4.8-10-6.6-14.5-8.2-20-.4-1.7-1.3-4.8-1.9-7-4.7-16.4-6.1-46.1-2.9-62 2.7-13.9 3.4-16.6 5.6-23.5 9.9-30.6 28.3-55.5 53.3-72.5 14.3-9.6 28.4-15.6 47.5-20.1 4.6-1.1 21.4-3.1 27-3.2 2.8-.1 10.2.5 16.5 1.3zm-222.5 47.9c8.9 1.7 9.9 2.2 16 6.7 6.4 4.7 12.2 10.9 16.9 17.9 4 5.9 8.6 15.2 8.6 17.5 0 .7.4 1.6.9 1.9.5.3 1.1 1.8 1.4 3.3.4 1.6 1.1 5 1.7 7.8 1.5 6.9 3.8 30.3 3.4 34-.3 1.6-.9 8.6-1.4 15.5-2.3 28-5.8 42.7-14.1 59.3-10.7 21.5-26.9 38.9-56.7 60.9-17 12.4-15.6 10.6-14.8 19.6.4 4.2 1.1 14.4 1.6 22.7.5 8.2 1.4 21.7 2 30 .5 8.2 1.4 22.2 1.9 31 .6 8.8 1.3 18.6 1.7 21.8.7 5.7.6 5.9-2.7 8.7-1.9 1.6-3.9 2.9-4.5 3-.6 0-1.9.9-2.9 2s-2.3 2-3 2c-.6 0-2 .8-3.1 1.7-1 1-3.1 2.4-4.6 3.2-1.6.8-2.8 1.8-2.8 2.3 0 .4-.6.8-1.3.8-.7 0-2.2.8-3.3 1.7-3.9 3.5-6.2 4.4-6.8 2.7-1.4-3.8-8.4-60.6-14-114.9-3.3-31.7-4.3-40.7-6.6-62.5-.5-4.7-1.4-13.2-2-19-.6-5.8-1.5-14.3-2.1-19-.5-4.7-1.4-12.6-2-17.5-.5-5-1.4-12.4-1.9-16.5s-1.4-11.6-2-16.5c-.6-5-1.5-12-2-15.8-2.2-14.9-3.1-21.5-4-27.2-.5-3.3-1.2-8.3-1.5-11.1l-.6-5 13.8-12.6c7.6-6.9 16.3-14.6 19.3-17 25.2-20.2 48.7-27.9 71.5-23.4zm402.3 28.9c20 18.2 43.5 43.8 59.3 64.7 16.5 21.7 32.8 48.2 43.6 71 7.5 15.7 11.3 23.9 11.3 24.5 0 .3.9 2.7 2.1 5.3 2.1 4.6 3.1 7 4.8 11.4.4 1.3 1.4 3.5 2.1 5.1.9 1.7 1 3.1.4 3.6-1.1 1.2-8.2 5-31.4 17.3-4.1 2.2-7.9 4.4-8.5 4.9-2.8 2.7-4.6.4-18.1-23.4-7.7-13.3-14.7-25.9-15.8-27.9-2.9-5.5-4.4-5.5-5.1 0-.6 4.5-1.4 10.4-3.5 24.9-.5 3.8-1.4 13.1-2 20.8-.6 7.7-1.5 19.4-2 26-2.8 34 1 95.4 8.1 129.5.5 2.5 1.7 8.1 2.5 12.5 2.7 13.4 3.2 15.6 5.9 26 4.9 19.3 16.3 52.7 22.5 66.2 1.1 2.4 2 4.5 2 4.8 0 .3 1.8 4.3 4 9s4 9.2 4 10.1c0 .9-1.9 3.9-4.2 6.8-6.1 7.3-31.9 37.8-33.3 39.5-1 1.1-2.3-1.2-6.5-12-9.1-23.3-20.7-59.7-30-93.9-.8-3.1-3.1-12.8-6-25.5-.9-3.6-3.5-16.8-5.9-30-1.5-7.6-4.4-28.2-6-41.5-2.7-22.5-3.2-30.5-3.7-60.9-1-52.6 2.8-93.9 12.5-136.6.5-2.2 1.4-6.3 2-9 1.1-5.3 1.7-7.5 5.1-20 1.2-4.3 2.3-8.2 2.6-8.6.5-.9-1.9-3.9-19-23.4-8.2-9.4-17.5-19.9-20.5-23.4-3.1-3.5-7.7-8.8-10.3-11.7l-4.8-5.4 4.6-8.8c2.6-4.8 5.5-9.9 6.5-11.4 1.1-1.4 1.9-2.8 1.9-3.1 0-.3 2.7-5.3 6.1-11.1 4.4-7.6 6.4-10.4 7.4-9.9.7.5 7.6 6.5 15.3 13.6zm-536.7 92.2c9.9 22.1 17.9 41.5 17.9 43.2 0 1-1.3 4.4-3 7.6-4.2 8.1-9.6 24.8-11.1 34-1.7 11.3-.6 31.6 2.5 44.7 3.3 14 7.3 26.6 13.6 43.5 15.2 40.7 20 62.5 20 91 0 28.6-6.9 59.5-19.3 87-8.8 19.4-24.7 44.6-36.2 56.9l-4.5 5-1.9-3.5c-1-1.8-6.5-12.6-12.4-23.9-5.8-11.3-11.2-21.8-12-23.4-1.8-3.3-1.3-4.8 4.5-13.1 1.8-2.6 3.8-5.5 4.3-6.5.6-1 1.7-2.6 2.5-3.5.8-.9 1.9-2.5 2.5-3.6.5-1 3.5-6 6.6-11.1 9.6-15.8 15.7-29.3 17.8-39.3.6-2.8 1.5-7.1 2.1-9.7 1.7-7.7.7-25-2.1-35.8-1.6-6.3-4.9-18.4-6.3-23-1.5-4.7-10.4-27.3-13.8-35-1.1-2.5-3.1-6.9-4.4-9.8-1.3-2.9-2.4-5.5-2.4-5.7 0-.3-1-2.7-2.1-5.3-4.2-9.2-4.8-10.8-6.4-15.7-.9-2.8-2-5.9-2.4-7-3.2-7.5-5.8-18.6-8.1-34.8-1.2-8.2.1-30.1 2.2-38.2 3.4-12.9 9.6-26.9 16-36.3 5.9-8.7 30-38.3 31-38 .5.2 2.7 4.4 4.9 9.3zm503.5 120.1c-.3 5.5-.9 28.1-1.2 50.4-.9 57.4 1.3 90.8 10.1 148.5 6.3 41.5 20 94.2 35.1 135.5 3.5 9.6 6.4 18 6.4 18.7 0 1-34.9 41.5-36.8 42.7-.5.3-1.4-.5-2-1.7-2.4-4.9-17.7-50.4-21.3-63.5-.5-1.7-1.3-4.7-1.8-6.5-.6-1.7-1.5-4.9-2-7-.6-2-1.5-5.3-2.1-7.2-2.7-9.3-3.2-11.3-4.1-14.8-1.8-7.1-2.9-11.7-3.9-15.5-4.3-17.1-7.8-32.4-9.8-43.7-.9-4.9-2.6-5-10.2-.5-2.8 1.7-9.5 5.3-14.8 8.1-5.3 2.8-11.4 6.1-13.6 7.3l-3.9 2.1.9 23c1.2 29.8 1.1 101.7 0 126-.8 16.7-1.2 19.5-3.2 23.5-3.9 7.8-11.1 13.5-28.9 23-5.5 2.9-11.2 6.1-12.7 7.1-1.4 1.1-2.9 1.9-3.4 1.9-.4 0-.4-8.4 0-18.8.4-10.3 1.1-30.2 1.6-44.2.4-14 1.4-44.4 2.1-67.5 2.4-73.4 1.6-145.4-2.1-194.5-1.2-16-2.9-32.2-6-58.4-.5-4.8-.8-9.2-.5-9.6 1-1.6 39.5-20.2 40.8-19.7 1.1.4 1.5 5.4 2.1 22.9.9 32.2 2.9 70.1 5.5 109.3.6 7.7 1 14.3 1.1 14.7 0 1.4 4 .8 7.8-1.1 9.8-4.9 13.1-7.1 19.3-13.2 10.7-10.5 10.3-8.9 9-39.3-.6-14.4-1.4-30.4-1.7-35.6-.2-5.2-.9-18.1-1.4-28.5-.5-10.5-1.2-25.5-1.6-33.5-.8-16.9-2.5-13.8 15.1-27.6 28.6-22.5 31-24.2 31.8-23.4.5.5.6 5.2.3 10.6zm-303.9-4.9c-.3 1.6-1 4.6-1.6 6.8-1.6 6.2-2.9 11.6-4.1 16.5-3.5 14.6-5.5 22.1-8.1 31-.6 1.9-1.3 5-1.6 6.8-.3 1.8-.9 3.5-1.4 3.8-.5.3-.9 1.6-.9 2.9 0 1.3-.4 3.4-.9 4.7-.8 2.2-1.2 3.4-4.1 13.8-.7 2.5-2 7-3 10s-2.3 7.5-3 10c-.7 2.5-1.6 5.4-2 6.5-.4 1.1-1.3 4-2 6.5-2.3 7.9-13.2 41.4-14.1 43.2-.5 1-.9 2.6-.9 3.6s-.3 2.2-.7 2.5c-.5.6-3.8 9.6-7.9 21.7-.8 2.5-1.9 5.4-2.4 6.5-.5 1.1-1.6 4-2.4 6.5-1.4 4.3-3.9 11.3-5.6 15.5-.4 1.1-2.7 6.9-5 13-2.3 6-4.6 11.8-5.1 12.7-.5 1-.9 2.3-.9 2.8 0 .6-.9 3-2 5.2-1.1 2.3-2 4.5-2 5s-.9 3-2.1 5.6c-1.2 2.6-2.5 5.6-2.9 6.7-.4 1.1-1.5 3.6-2.3 5.5-.9 1.9-3 7.1-4.7 11.5-1.7 4.4-4.2 10.2-5.4 13-1.2 2.7-2.9 6.6-3.6 8.5-.8 1.9-2.2 5-3.2 6.8-1 1.8-1.8 3.7-1.8 4.1 0 .5-1.6 4.3-3.5 8.4-1.9 4.1-3.5 7.9-3.5 8.3 0 .5 4.2 3.7 9.3 7.1 5 3.5 11 7.5 13.2 9.1 2.2 1.5 8.1 5.6 13 9 5 3.4 11.9 8.3 15.5 10.8 3.6 2.5 8.1 5.6 10 6.9 1.9 1.4 6.4 4.5 10 7 3.6 2.6 8.2 5.7 10.3 7.1 4.2 2.8 4.2 3-1.7 10.9-1.7 2.3-7.6 10.6-13.1 18.3-5.5 7.8-10.5 14.2-11.1 14.2-.6 0-3.9-1.8-7.3-4s-6.4-4-6.7-4c-.9 0-34.8-22.6-44.9-29.8-13.4-9.7-29.1-22-47.2-37l-16.2-13.5 3.1-5.6c1.7-3.1 3.9-7 4.8-8.6 6.2-10.3 21.5-39.7 36-69 27.9-56.4 44.4-97.2 60-149 1.5-5.1 5.8-22.1 9-36 1.4-6 4.7-24.1 5.9-32 .5-3.9 1.5-10 2-13.6.6-3.7 1.1-8.1 1.1-9.8 0-4.8 1.4-6.6 6.2-8.1 2.4-.7 4.8-1.6 5.3-2 .6-.4 3-1.3 5.5-2s5-1.6 5.5-2c.6-.4 3-1.3 5.5-2s5-1.6 5.5-2c.6-.4 3-1.3 5.5-2s5-1.6 5.5-2c.6-.4 3-1.2 5.5-2 2.5-.7 4.9-1.7 5.5-2.2.5-.4 1.8-.8 2.8-.8 1.6 0 1.8.5 1.4 2.7zm39 45c21.6 16.1 19.9 14.3 18.4 19.4-.7 2.4-1.7 5.3-2.1 6.4-.4 1.1-1.3 4-2 6.5s-1.6 5.4-2 6.5c-.4 1.1-1.3 4-2 6.5-2.2 8-3.3 11.5-4 13.5-.7 2-1.8 5.5-4 13.5-.7 2.5-1.6 5.4-2 6.5-.4 1.1-1.3 4-2 6.5s-1.6 5.4-2 6.5c-.7 2-4.4 13.4-12.9 40.5-2.4 7.4-4.7 14.3-5.2 15.2-.5 1-.9 2.5-.9 3.3 0 .8-.4 2.3-.9 3.3-.5.9-1.9 5.1-3.2 9.2-1.2 4.1-2.6 7.9-3.1 8.4-.4.6-.8 2-.8 3.2 0 1.3-.4 2.6-1 2.9-.5.3-1 1.5-1 2.6 0 1-.4 2.7-1 3.7-.5.9-3.7 10-7 20.2s-6.5 19.3-7 20.2c-.6 1-1 2.6-1 3.6s-.4 2.2-.8 2.8c-.5.5-1.5 2.9-2.2 5.4-.8 2.5-1.6 4.9-2 5.5-.3.5-1.2 2.8-1.9 5-1.4 4.4-4.8 13.9-6.1 17-.5 1.1-1.6 4-2.4 6.5-2.9 8.7-5.3 15-5.9 15.7-.4.3-.7 1.6-.7 2.8 0 1.1-.4 2.5-.8 3.1-.5.5-1.5 2.8-2.2 5.2-.7 2.3-1.8 4.7-2.5 5.2-.7.6-6.9-2.3-18.5-8.6-9.6-5.2-17.9-9.9-18.4-10.4-.8-.8.4-5.2 3.4-12.5.8-1.9 2.6-6.7 9.9-26.3 1.6-4.2 4.1-10.9 5.6-14.7 1.5-3.9 3.1-8.1 3.5-9.5.5-1.4 2.2-6.3 4-11 1.7-4.7 6.1-17.3 9.6-28 3.6-10.7 8.3-24.5 10.4-30.5 2.1-6.1 5.7-17.1 8-24.5 2.3-7.4 5-16 6-19 .9-3 2.7-8.9 4-13 1.3-4.1 3.1-10 4-13 1-3 2.5-8 3.5-11 .9-3 2.1-7.1 2.7-9 .5-1.9 1.3-4.9 1.8-6.5 1.2-4 3.8-13.4 6.4-22.8.9-3.1 2.3-8.3 3.2-11.5.9-3.1 2-7.1 2.4-8.7 1.3-4.6 2.7-9.4 4.4-16 2.5-9.2 2.3-8.9 4.6-7.4 1 .8 8.1 6 15.7 11.6zm115.3 32.3v27.9l-6.2 4.2c-20.7 14-44.3 38.3-53.8 55.4-1.2 2.2-3 5.1-3.9 6.5-1.9 2.7-10.1 19.4-10.1 20.4 0 .3-.9 2.5-1.9 4.9-1.7 3.6-3.6 9.1-9.1 26.3-.6 1.7-1 4-1 5.2 0 1.1-.4 2.3-.9 2.6-.5.3-1.1 2.3-1.4 4.3-.3 2.1-1.1 6.3-1.6 9.3-8.3 43.2-9.7 83.6-4.2 115 1.4 7.9 2.1 11.2 3.1 13.5.4 1.1 1.4 4 2.1 6.5 3.1 10.4 13.3 27.5 20.5 34.2 4.2 3.8 12.2 6.1 19.4 5.6 5.1-.4 6.5-.9 9.4-3.7 3.2-3.1 4.2-5.3 6.6-15.1.7-3 .9-15.2.6-37.4l-.4-32.9-9.4.4c-5.1.2-13.3.4-18.3.4h-9l.1-10c0-10.2 1.2-29.3 1.9-33.1.4-1.8 1.4-2.2 7.2-2.8 6.8-.7 17.5-1.8 33.3-3.6 4.7-.5 13.2-1.3 19-1.9 5.8-.5 11.2-1.1 12-1.3 1.3-.3 1.5 10.5 1.8 85.7l.2 86.1-4.7 1.3c-2.7.7-5.9 1.7-7.3 2.1-1.4.5-5.9 1.8-10 3s-8.6 2.6-10 3c-1.4.5-4.7 1.3-7.5 1.9-2.7.6-7.1 1.5-9.7 2.1-7 1.5-26.8 1.2-33.5-.5-32.4-8.3-54.5-42.7-62-96.5-.4-3-.8-19.2-.8-36 0-31.4.6-39.6 5.4-68 .6-3.6 1.4-8.1 1.7-10 .3-1.9.9-5.3 1.4-7.5.4-2.2 1.4-6.7 2-10 .6-3.3 1.5-7.6 2-9.5.5-1.9 1.4-5.8 2.1-8.5.6-2.8 1.5-6.4 1.9-8 .5-1.7 1.4-5 2-7.5.7-2.5 1.6-5.4 2-6.5.4-1.1 1.7-5.2 2.9-9 1.2-3.9 2.6-7.9 3.1-9 .4-1.1 1.6-4 2.5-6.5 6.5-17.5 21.2-44.8 30.1-56 13.8-17.2 23.8-27.2 37.9-37.7 3.9-2.9 7.5-5.7 8.2-6.3.7-.6 2.4-1.5 3.8-2.2 1.4-.6 2.5-1.4 2.5-1.8 0-.4 1.1-1.2 2.5-1.8 1.4-.7 3.1-1.6 3.8-2.2 3.1-2.6 19.3-12.9 20.5-12.9.9-.1 1.2 6.1 1.2 27.9z"/><path d="M522.82 172.887c-13.8 2.8-23.5 7.3-35.5 16.2-15.4 11.5-27.6 27.9-33.5 45.3-.7 1.9-1.6 4.4-2 5.5-2.6 6.2-3.8 33-2 41.5 4.5 20.1 13.2 35.4 29 50.9 9.7 9.5 19.5 15.6 30.5 19.1 2.2.7 4.9 1.6 6 2.1 5.9 2.3 31.6 3.6 38.4 1.9 10.3-2.6 12.7-3.2 14.3-4.1 1-.5 2.3-.9 2.9-.9.6 0 3.9-1.4 7.2-3.1 26.1-13.2 42.1-34.2 49.5-65.2 1.5-6 1.6-30.6.1-36.1-2.2-8.4-5.3-17.7-6.1-18.2-.4-.3-.8-1.1-.8-1.9 0-2.3-10.2-18.1-15.9-24.5-11.9-13.6-31.4-25.1-47.6-28.2-8.5-1.6-27.4-1.8-34.5-.3zM300.92 224.387c-8.2 2.2-18.1 6.4-19.3 8.3-1.1 1.7-1 24 .2 44 1.7 27 8.1 81.2 9.8 82.9 1.2 1.2 18-16.5 23.9-25.2 9.7-14.4 15.1-27.5 18.3-44.5 1.8-9.2.6-34.7-1.9-41-.5-1.1-1.4-3.8-2-6-1.5-5-2.6-7.5-6.1-14.5l-2.8-5.5-6.3-.2c-3.8-.1-9.4.6-13.8 1.7z"/></svg>
